<svg id="logo" width="724" height="375" viewBox="0 0 724 375" fill="none" xmlns="http://www.w3.org/2000/svg">
    <mask id="path-1-outside-1" maskUnits="userSpaceOnUse" x="0.0880127" y="0.984009" width="724" height="374" fill="black">
        <rect fill="white" x="0.0880127" y="0.984009" width="724" height="374"/>
        <path d="M83.951 117.008C77.327 117.008 71.3751 115.856 66.0951 113.552C60.9111 111.152 56.8311 107.888 53.8551 103.76C50.8791 99.536 49.3431 94.688 49.2471 89.216H63.2151C63.6951 93.92 65.6151 97.904 68.9751 101.168C72.4311 104.336 77.423 105.92 83.951 105.92C90.191 105.92 95.0871 104.384 98.6391 101.312C102.287 98.144 104.111 94.112 104.111 89.216C104.111 85.376 103.055 82.256 100.943 79.856C98.8311 77.456 96.1911 75.632 93.0231 74.384C89.8551 73.136 85.5831 71.792 80.2071 70.352C73.5831 68.624 68.2551 66.896 64.2231 65.168C60.2871 63.44 56.8791 60.752 53.9991 57.104C51.2151 53.36 49.8231 48.368 49.8231 42.128C49.8231 36.656 51.2151 31.808 53.9991 27.584C56.7831 23.36 60.6711 20.096 65.6631 17.792C70.7511 15.488 76.5591 14.336 83.0871 14.336C92.4951 14.336 100.175 16.688 106.127 21.392C112.175 26.096 115.583 32.336 116.351 40.112H101.951C101.471 36.272 99.4551 32.912 95.9031 30.032C92.3511 27.056 87.6471 25.568 81.7911 25.568C76.3191 25.568 71.8551 27.008 68.3991 29.888C64.9431 32.672 63.2151 36.608 63.2151 41.696C63.2151 45.344 64.2231 48.32 66.2391 50.624C68.3511 52.928 70.8951 54.704 73.8711 55.952C76.9431 57.104 81.2151 58.448 86.6871 59.984C93.3111 61.808 98.6391 63.632 102.671 65.456C106.703 67.184 110.159 69.92 113.039 73.664C115.919 77.312 117.359 82.304 117.359 88.64C117.359 93.536 116.063 98.144 113.471 102.464C110.879 106.784 107.039 110.288 101.951 112.976C96.8631 115.664 90.8631 117.008 83.951 117.008Z"/>
        <path d="M171.059 117.296C163.667 117.296 156.947 115.616 150.899 112.256C144.947 108.896 140.243 104.144 136.787 98C133.427 91.76 131.747 84.56 131.747 76.4C131.747 68.336 133.475 61.232 136.931 55.088C140.483 48.848 145.283 44.096 151.331 40.832C157.379 37.472 164.147 35.792 171.635 35.792C179.123 35.792 185.891 37.472 191.939 40.832C197.987 44.096 202.739 48.8 206.195 54.944C209.747 61.088 211.523 68.24 211.523 76.4C211.523 84.56 209.699 91.76 206.051 98C202.499 104.144 197.651 108.896 191.507 112.256C185.363 115.616 178.547 117.296 171.059 117.296ZM171.059 105.776C175.763 105.776 180.179 104.672 184.307 102.464C188.435 100.256 191.747 96.944 194.243 92.528C196.835 88.112 198.131 82.736 198.131 76.4C198.131 70.064 196.883 64.688 194.387 60.272C191.891 55.856 188.627 52.592 184.595 50.48C180.563 48.272 176.195 47.168 171.491 47.168C166.691 47.168 162.275 48.272 158.243 50.48C154.307 52.592 151.139 55.856 148.739 60.272C146.339 64.688 145.139 70.064 145.139 76.4C145.139 82.832 146.291 88.256 148.595 92.672C150.995 97.088 154.163 100.4 158.099 102.608C162.035 104.72 166.355 105.776 171.059 105.776Z"/>
        <path d="M260.864 47.888H244.304V116H231.2V47.888H220.976V37.088H231.2V31.472C231.2 22.64 233.456 16.208 237.968 12.176C242.576 8.04801 249.92 5.98401 260 5.98401V16.928C254.24 16.928 250.16 18.08 247.76 20.384C245.456 22.592 244.304 26.288 244.304 31.472V37.088H260.864V47.888Z"/>
        <path d="M292.127 47.888V94.4C292.127 98.24 292.943 100.976 294.575 102.608C296.207 104.144 299.039 104.912 303.071 104.912H312.719V116H300.911C293.615 116 288.143 114.32 284.495 110.96C280.847 107.6 279.023 102.08 279.023 94.4V47.888H268.799V37.088H279.023V17.216H292.127V37.088H312.719V47.888H292.127Z"/>
        <path d="M433.716 37.088L409.092 116H395.556L376.548 53.36L357.54 116H344.004L319.236 37.088H332.628L350.772 103.328L370.356 37.088H383.748L402.9 103.472L420.756 37.088H433.716Z"/>
        <path d="M441.825 76.256C441.825 68.192 443.457 61.136 446.721 55.088C449.985 48.944 454.449 44.192 460.113 40.832C465.873 37.472 472.257 35.792 479.265 35.792C486.177 35.792 492.177 37.28 497.265 40.256C502.353 43.232 506.145 46.976 508.641 51.488V37.088H521.889V116H508.641V101.312C506.049 105.92 502.161 109.76 496.977 112.832C491.889 115.808 485.937 117.296 479.121 117.296C472.113 117.296 465.777 115.568 460.113 112.112C454.449 108.656 449.985 103.808 446.721 97.568C443.457 91.328 441.825 84.224 441.825 76.256ZM508.641 76.4C508.641 70.448 507.441 65.264 505.041 60.848C502.641 56.432 499.377 53.072 495.249 50.768C491.217 48.368 486.753 47.168 481.857 47.168C476.961 47.168 472.497 48.32 468.465 50.624C464.433 52.928 461.217 56.288 458.817 60.704C456.417 65.12 455.217 70.304 455.217 76.256C455.217 82.304 456.417 87.584 458.817 92.096C461.217 96.512 464.433 99.92 468.465 102.32C472.497 104.624 476.961 105.776 481.857 105.776C486.753 105.776 491.217 104.624 495.249 102.32C499.377 99.92 502.641 96.512 505.041 92.096C507.441 87.584 508.641 82.352 508.641 76.4Z"/>
        <path d="M557.137 49.904C559.441 45.392 562.705 41.888 566.929 39.392C571.249 36.896 576.481 35.648 582.625 35.648V49.184H579.169C564.481 49.184 557.137 57.152 557.137 73.088V116H544.033V37.088H557.137V49.904Z"/>
        <path d="M669.752 73.52C669.752 76.016 669.608 78.656 669.32 81.44H606.248C606.728 89.216 609.368 95.312 614.168 99.728C619.064 104.048 624.968 106.208 631.88 106.208C637.544 106.208 642.248 104.912 645.992 102.32C649.832 99.632 652.52 96.08 654.056 91.664H668.168C666.056 99.248 661.832 105.44 655.496 110.24C649.16 114.944 641.288 117.296 631.88 117.296C624.392 117.296 617.672 115.616 611.72 112.256C605.864 108.896 601.256 104.144 597.896 98C594.536 91.76 592.856 84.56 592.856 76.4C592.856 68.24 594.488 61.088 597.752 54.944C601.016 48.8 605.576 44.096 611.432 40.832C617.384 37.472 624.2 35.792 631.88 35.792C639.368 35.792 645.992 37.424 651.752 40.688C657.512 43.952 661.928 48.464 665 54.224C668.168 59.888 669.752 66.32 669.752 73.52ZM656.216 70.784C656.216 65.792 655.112 61.52 652.904 57.968C650.696 54.32 647.672 51.584 643.832 49.76C640.088 47.84 635.912 46.88 631.304 46.88C624.68 46.88 619.016 48.992 614.312 53.216C609.704 57.44 607.064 63.296 606.392 70.784H656.216Z"/>
        <path d="M36.336 231.632C47.28 231.632 56.736 233.696 64.704 237.824C72.768 241.856 78.912 247.664 83.136 255.248C87.456 262.832 89.616 271.76 89.616 282.032C89.616 292.304 87.456 301.232 83.136 308.816C78.912 316.304 72.768 322.064 64.704 326.096C56.736 330.032 47.28 332 36.336 332H5.08801V231.632H36.336ZM36.336 321.2C49.296 321.2 59.184 317.792 66 310.976C72.816 304.064 76.224 294.416 76.224 282.032C76.224 269.552 72.768 259.808 65.856 252.8C59.04 245.792 49.2 242.288 36.336 242.288H18.192V321.2H36.336Z"/>
        <path d="M178.901 289.52C178.901 292.016 178.757 294.656 178.469 297.44H115.397C115.877 305.216 118.516 311.312 123.316 315.728C128.212 320.048 134.117 322.208 141.029 322.208C146.693 322.208 151.396 320.912 155.141 318.32C158.98 315.632 161.669 312.08 163.204 307.664H177.316C175.204 315.248 170.98 321.44 164.645 326.24C158.309 330.944 150.437 333.296 141.029 333.296C133.54 333.296 126.821 331.616 120.868 328.256C115.012 324.896 110.404 320.144 107.044 314C103.684 307.76 102.004 300.56 102.004 292.4C102.004 284.24 103.637 277.088 106.901 270.944C110.165 264.8 114.725 260.096 120.581 256.832C126.533 253.472 133.349 251.792 141.029 251.792C148.517 251.792 155.141 253.424 160.901 256.688C166.661 259.952 171.076 264.464 174.148 270.224C177.316 275.888 178.901 282.32 178.901 289.52ZM165.365 286.784C165.365 281.792 164.26 277.52 162.052 273.968C159.844 270.32 156.82 267.584 152.98 265.76C149.236 263.84 145.061 262.88 140.453 262.88C133.829 262.88 128.165 264.992 123.461 269.216C118.853 273.44 116.212 279.296 115.54 286.784H165.365Z"/>
        <path d="M225.573 319.904L250.053 253.088H264.021L233.061 332H217.797L186.837 253.088H200.949L225.573 319.904Z"/>
        <path d="M348.916 289.52C348.916 292.016 348.772 294.656 348.484 297.44H285.412C285.892 305.216 288.532 311.312 293.332 315.728C298.228 320.048 304.132 322.208 311.044 322.208C316.708 322.208 321.412 320.912 325.156 318.32C328.996 315.632 331.684 312.08 333.22 307.664H347.332C345.22 315.248 340.996 321.44 334.66 326.24C328.324 330.944 320.452 333.296 311.044 333.296C303.556 333.296 296.836 331.616 290.884 328.256C285.028 324.896 280.42 320.144 277.06 314C273.7 307.76 272.02 300.56 272.02 292.4C272.02 284.24 273.652 277.088 276.916 270.944C280.18 264.8 284.74 260.096 290.596 256.832C296.548 253.472 303.364 251.792 311.044 251.792C318.532 251.792 325.156 253.424 330.916 256.688C336.676 259.952 341.092 264.464 344.164 270.224C347.332 275.888 348.916 282.32 348.916 289.52ZM335.38 286.784C335.38 281.792 334.276 277.52 332.068 273.968C329.86 270.32 326.836 267.584 322.996 265.76C319.252 263.84 315.076 262.88 310.468 262.88C303.844 262.88 298.18 264.992 293.476 269.216C288.868 273.44 286.228 279.296 285.556 286.784H335.38Z"/>
        <path d="M379.317 225.44V332H366.213V225.44H379.317Z"/>
        <path d="M436.067 333.296C428.675 333.296 421.954 331.616 415.906 328.256C409.954 324.896 405.25 320.144 401.794 314C398.435 307.76 396.755 300.56 396.755 292.4C396.755 284.336 398.482 277.232 401.938 271.088C405.49 264.848 410.29 260.096 416.339 256.832C422.387 253.472 429.155 251.792 436.643 251.792C444.131 251.792 450.899 253.472 456.947 256.832C462.995 260.096 467.747 264.8 471.203 270.944C474.755 277.088 476.531 284.24 476.531 292.4C476.531 300.56 474.706 307.76 471.058 314C467.506 320.144 462.659 324.896 456.515 328.256C450.371 331.616 443.555 333.296 436.067 333.296ZM436.067 321.776C440.771 321.776 445.187 320.672 449.315 318.464C453.443 316.256 456.754 312.944 459.25 308.528C461.842 304.112 463.138 298.736 463.138 292.4C463.138 286.064 461.891 280.688 459.395 276.272C456.899 271.856 453.634 268.592 449.602 266.48C445.57 264.272 441.202 263.168 436.498 263.168C431.698 263.168 427.283 264.272 423.25 266.48C419.314 268.592 416.147 271.856 413.747 276.272C411.347 280.688 410.146 286.064 410.146 292.4C410.146 298.832 411.298 304.256 413.602 308.672C416.002 313.088 419.171 316.4 423.107 318.608C427.043 320.72 431.363 321.776 436.067 321.776Z"/>
        <path d="M506.864 267.632C509.456 263.12 513.296 259.376 518.384 256.4C523.568 253.328 529.568 251.792 536.384 251.792C543.392 251.792 549.728 253.472 555.392 256.832C561.152 260.192 565.664 264.944 568.928 271.088C572.192 277.136 573.824 284.192 573.824 292.256C573.824 300.224 572.192 307.328 568.928 313.568C565.664 319.808 561.152 324.656 555.392 328.112C549.728 331.568 543.392 333.296 536.384 333.296C529.664 333.296 523.712 331.808 518.528 328.832C513.44 325.76 509.552 321.968 506.864 317.456V369.44H493.76V253.088H506.864V267.632ZM560.432 292.256C560.432 286.304 559.232 281.12 556.832 276.704C554.432 272.288 551.168 268.928 547.04 266.624C543.008 264.32 538.544 263.168 533.648 263.168C528.848 263.168 524.384 264.368 520.256 266.768C516.224 269.072 512.96 272.48 510.464 276.992C508.064 281.408 506.864 286.544 506.864 292.4C506.864 298.352 508.064 303.584 510.464 308.096C512.96 312.512 516.224 315.92 520.256 318.32C524.384 320.624 528.848 321.776 533.648 321.776C538.544 321.776 543.008 320.624 547.04 318.32C551.168 315.92 554.432 312.512 556.832 308.096C559.232 303.584 560.432 298.304 560.432 292.256Z"/>
        <path d="M663.072 289.52C663.072 292.016 662.928 294.656 662.64 297.44H599.568C600.048 305.216 602.688 311.312 607.488 315.728C612.384 320.048 618.288 322.208 625.2 322.208C630.864 322.208 635.568 320.912 639.312 318.32C643.152 315.632 645.84 312.08 647.376 307.664H661.488C659.376 315.248 655.152 321.44 648.816 326.24C642.48 330.944 634.608 333.296 625.2 333.296C617.712 333.296 610.992 331.616 605.04 328.256C599.184 324.896 594.576 320.144 591.216 314C587.856 307.76 586.176 300.56 586.176 292.4C586.176 284.24 587.808 277.088 591.072 270.944C594.336 264.8 598.896 260.096 604.752 256.832C610.704 253.472 617.52 251.792 625.2 251.792C632.688 251.792 639.312 253.424 645.072 256.688C650.832 259.952 655.248 264.464 658.32 270.224C661.488 275.888 663.072 282.32 663.072 289.52ZM649.536 286.784C649.536 281.792 648.432 277.52 646.224 273.968C644.016 270.32 640.992 267.584 637.152 265.76C633.408 263.84 629.232 262.88 624.624 262.88C618 262.88 612.336 264.992 607.632 269.216C603.024 273.44 600.384 279.296 599.712 286.784H649.536Z"/>
        <path d="M693.473 265.904C695.777 261.392 699.041 257.888 703.265 255.392C707.585 252.896 712.817 251.648 718.961 251.648V265.184H715.505C700.817 265.184 693.473 273.152 693.473 289.088V332H680.369V253.088H693.473V265.904Z"/>
    </mask>
    <path d="M83.951 117.008C77.327 117.008 71.3751 115.856 66.0951 113.552C60.9111 111.152 56.8311 107.888 53.8551 103.76C50.8791 99.536 49.3431 94.688 49.2471 89.216H63.2151C63.6951 93.92 65.6151 97.904 68.9751 101.168C72.4311 104.336 77.423 105.92 83.951 105.92C90.191 105.92 95.0871 104.384 98.6391 101.312C102.287 98.144 104.111 94.112 104.111 89.216C104.111 85.376 103.055 82.256 100.943 79.856C98.8311 77.456 96.1911 75.632 93.0231 74.384C89.8551 73.136 85.5831 71.792 80.2071 70.352C73.5831 68.624 68.2551 66.896 64.2231 65.168C60.2871 63.44 56.8791 60.752 53.9991 57.104C51.2151 53.36 49.8231 48.368 49.8231 42.128C49.8231 36.656 51.2151 31.808 53.9991 27.584C56.7831 23.36 60.6711 20.096 65.6631 17.792C70.7511 15.488 76.5591 14.336 83.0871 14.336C92.4951 14.336 100.175 16.688 106.127 21.392C112.175 26.096 115.583 32.336 116.351 40.112H101.951C101.471 36.272 99.4551 32.912 95.9031 30.032C92.3511 27.056 87.6471 25.568 81.7911 25.568C76.3191 25.568 71.8551 27.008 68.3991 29.888C64.9431 32.672 63.2151 36.608 63.2151 41.696C63.2151 45.344 64.2231 48.32 66.2391 50.624C68.3511 52.928 70.8951 54.704 73.8711 55.952C76.9431 57.104 81.2151 58.448 86.6871 59.984C93.3111 61.808 98.6391 63.632 102.671 65.456C106.703 67.184 110.159 69.92 113.039 73.664C115.919 77.312 117.359 82.304 117.359 88.64C117.359 93.536 116.063 98.144 113.471 102.464C110.879 106.784 107.039 110.288 101.951 112.976C96.8631 115.664 90.8631 117.008 83.951 117.008Z" stroke="white" stroke-width="10" mask="url(#path-1-outside-1)"/>
    <path d="M171.059 117.296C163.667 117.296 156.947 115.616 150.899 112.256C144.947 108.896 140.243 104.144 136.787 98C133.427 91.76 131.747 84.56 131.747 76.4C131.747 68.336 133.475 61.232 136.931 55.088C140.483 48.848 145.283 44.096 151.331 40.832C157.379 37.472 164.147 35.792 171.635 35.792C179.123 35.792 185.891 37.472 191.939 40.832C197.987 44.096 202.739 48.8 206.195 54.944C209.747 61.088 211.523 68.24 211.523 76.4C211.523 84.56 209.699 91.76 206.051 98C202.499 104.144 197.651 108.896 191.507 112.256C185.363 115.616 178.547 117.296 171.059 117.296ZM171.059 105.776C175.763 105.776 180.179 104.672 184.307 102.464C188.435 100.256 191.747 96.944 194.243 92.528C196.835 88.112 198.131 82.736 198.131 76.4C198.131 70.064 196.883 64.688 194.387 60.272C191.891 55.856 188.627 52.592 184.595 50.48C180.563 48.272 176.195 47.168 171.491 47.168C166.691 47.168 162.275 48.272 158.243 50.48C154.307 52.592 151.139 55.856 148.739 60.272C146.339 64.688 145.139 70.064 145.139 76.4C145.139 82.832 146.291 88.256 148.595 92.672C150.995 97.088 154.163 100.4 158.099 102.608C162.035 104.72 166.355 105.776 171.059 105.776Z" stroke="white" stroke-width="10" mask="url(#path-1-outside-1)"/>
    <path d="M260.864 47.888H244.304V116H231.2V47.888H220.976V37.088H231.2V31.472C231.2 22.64 233.456 16.208 237.968 12.176C242.576 8.04801 249.92 5.98401 260 5.98401V16.928C254.24 16.928 250.16 18.08 247.76 20.384C245.456 22.592 244.304 26.288 244.304 31.472V37.088H260.864V47.888Z" stroke="white" stroke-width="10" mask="url(#path-1-outside-1)"/>
    <path d="M292.127 47.888V94.4C292.127 98.24 292.943 100.976 294.575 102.608C296.207 104.144 299.039 104.912 303.071 104.912H312.719V116H300.911C293.615 116 288.143 114.32 284.495 110.96C280.847 107.6 279.023 102.08 279.023 94.4V47.888H268.799V37.088H279.023V17.216H292.127V37.088H312.719V47.888H292.127Z" stroke="white" stroke-width="10" mask="url(#path-1-outside-1)"/>
    <path d="M433.716 37.088L409.092 116H395.556L376.548 53.36L357.54 116H344.004L319.236 37.088H332.628L350.772 103.328L370.356 37.088H383.748L402.9 103.472L420.756 37.088H433.716Z" stroke="white" stroke-width="10" mask="url(#path-1-outside-1)"/>
    <path d="M441.825 76.256C441.825 68.192 443.457 61.136 446.721 55.088C449.985 48.944 454.449 44.192 460.113 40.832C465.873 37.472 472.257 35.792 479.265 35.792C486.177 35.792 492.177 37.28 497.265 40.256C502.353 43.232 506.145 46.976 508.641 51.488V37.088H521.889V116H508.641V101.312C506.049 105.92 502.161 109.76 496.977 112.832C491.889 115.808 485.937 117.296 479.121 117.296C472.113 117.296 465.777 115.568 460.113 112.112C454.449 108.656 449.985 103.808 446.721 97.568C443.457 91.328 441.825 84.224 441.825 76.256ZM508.641 76.4C508.641 70.448 507.441 65.264 505.041 60.848C502.641 56.432 499.377 53.072 495.249 50.768C491.217 48.368 486.753 47.168 481.857 47.168C476.961 47.168 472.497 48.32 468.465 50.624C464.433 52.928 461.217 56.288 458.817 60.704C456.417 65.12 455.217 70.304 455.217 76.256C455.217 82.304 456.417 87.584 458.817 92.096C461.217 96.512 464.433 99.92 468.465 102.32C472.497 104.624 476.961 105.776 481.857 105.776C486.753 105.776 491.217 104.624 495.249 102.32C499.377 99.92 502.641 96.512 505.041 92.096C507.441 87.584 508.641 82.352 508.641 76.4Z" stroke="white" stroke-width="10" mask="url(#path-1-outside-1)"/>
    <path d="M557.137 49.904C559.441 45.392 562.705 41.888 566.929 39.392C571.249 36.896 576.481 35.648 582.625 35.648V49.184H579.169C564.481 49.184 557.137 57.152 557.137 73.088V116H544.033V37.088H557.137V49.904Z" stroke="white" stroke-width="10" mask="url(#path-1-outside-1)"/>
    <path d="M669.752 73.52C669.752 76.016 669.608 78.656 669.32 81.44H606.248C606.728 89.216 609.368 95.312 614.168 99.728C619.064 104.048 624.968 106.208 631.88 106.208C637.544 106.208 642.248 104.912 645.992 102.32C649.832 99.632 652.52 96.08 654.056 91.664H668.168C666.056 99.248 661.832 105.44 655.496 110.24C649.16 114.944 641.288 117.296 631.88 117.296C624.392 117.296 617.672 115.616 611.72 112.256C605.864 108.896 601.256 104.144 597.896 98C594.536 91.76 592.856 84.56 592.856 76.4C592.856 68.24 594.488 61.088 597.752 54.944C601.016 48.8 605.576 44.096 611.432 40.832C617.384 37.472 624.2 35.792 631.88 35.792C639.368 35.792 645.992 37.424 651.752 40.688C657.512 43.952 661.928 48.464 665 54.224C668.168 59.888 669.752 66.32 669.752 73.52ZM656.216 70.784C656.216 65.792 655.112 61.52 652.904 57.968C650.696 54.32 647.672 51.584 643.832 49.76C640.088 47.84 635.912 46.88 631.304 46.88C624.68 46.88 619.016 48.992 614.312 53.216C609.704 57.44 607.064 63.296 606.392 70.784H656.216Z" stroke="white" stroke-width="10" mask="url(#path-1-outside-1)"/>
    <path d="M36.336 231.632C47.28 231.632 56.736 233.696 64.704 237.824C72.768 241.856 78.912 247.664 83.136 255.248C87.456 262.832 89.616 271.76 89.616 282.032C89.616 292.304 87.456 301.232 83.136 308.816C78.912 316.304 72.768 322.064 64.704 326.096C56.736 330.032 47.28 332 36.336 332H5.08801V231.632H36.336ZM36.336 321.2C49.296 321.2 59.184 317.792 66 310.976C72.816 304.064 76.224 294.416 76.224 282.032C76.224 269.552 72.768 259.808 65.856 252.8C59.04 245.792 49.2 242.288 36.336 242.288H18.192V321.2H36.336Z" stroke="white" stroke-width="10" mask="url(#path-1-outside-1)"/>
    <path d="M178.901 289.52C178.901 292.016 178.757 294.656 178.469 297.44H115.397C115.877 305.216 118.516 311.312 123.316 315.728C128.212 320.048 134.117 322.208 141.029 322.208C146.693 322.208 151.396 320.912 155.141 318.32C158.98 315.632 161.669 312.08 163.204 307.664H177.316C175.204 315.248 170.98 321.44 164.645 326.24C158.309 330.944 150.437 333.296 141.029 333.296C133.54 333.296 126.821 331.616 120.868 328.256C115.012 324.896 110.404 320.144 107.044 314C103.684 307.76 102.004 300.56 102.004 292.4C102.004 284.24 103.637 277.088 106.901 270.944C110.165 264.8 114.725 260.096 120.581 256.832C126.533 253.472 133.349 251.792 141.029 251.792C148.517 251.792 155.141 253.424 160.901 256.688C166.661 259.952 171.076 264.464 174.148 270.224C177.316 275.888 178.901 282.32 178.901 289.52ZM165.365 286.784C165.365 281.792 164.26 277.52 162.052 273.968C159.844 270.32 156.82 267.584 152.98 265.76C149.236 263.84 145.061 262.88 140.453 262.88C133.829 262.88 128.165 264.992 123.461 269.216C118.853 273.44 116.212 279.296 115.54 286.784H165.365Z" stroke="white" stroke-width="10" mask="url(#path-1-outside-1)"/>
    <path d="M225.573 319.904L250.053 253.088H264.021L233.061 332H217.797L186.837 253.088H200.949L225.573 319.904Z" stroke="white" stroke-width="10" mask="url(#path-1-outside-1)"/>
    <path d="M348.916 289.52C348.916 292.016 348.772 294.656 348.484 297.44H285.412C285.892 305.216 288.532 311.312 293.332 315.728C298.228 320.048 304.132 322.208 311.044 322.208C316.708 322.208 321.412 320.912 325.156 318.32C328.996 315.632 331.684 312.08 333.22 307.664H347.332C345.22 315.248 340.996 321.44 334.66 326.24C328.324 330.944 320.452 333.296 311.044 333.296C303.556 333.296 296.836 331.616 290.884 328.256C285.028 324.896 280.42 320.144 277.06 314C273.7 307.76 272.02 300.56 272.02 292.4C272.02 284.24 273.652 277.088 276.916 270.944C280.18 264.8 284.74 260.096 290.596 256.832C296.548 253.472 303.364 251.792 311.044 251.792C318.532 251.792 325.156 253.424 330.916 256.688C336.676 259.952 341.092 264.464 344.164 270.224C347.332 275.888 348.916 282.32 348.916 289.52ZM335.38 286.784C335.38 281.792 334.276 277.52 332.068 273.968C329.86 270.32 326.836 267.584 322.996 265.76C319.252 263.84 315.076 262.88 310.468 262.88C303.844 262.88 298.18 264.992 293.476 269.216C288.868 273.44 286.228 279.296 285.556 286.784H335.38Z" stroke="white" stroke-width="10" mask="url(#path-1-outside-1)"/>
    <path d="M379.317 225.44V332H366.213V225.44H379.317Z" stroke="white" stroke-width="10" mask="url(#path-1-outside-1)"/>
    <path d="M436.067 333.296C428.675 333.296 421.954 331.616 415.906 328.256C409.954 324.896 405.25 320.144 401.794 314C398.435 307.76 396.755 300.56 396.755 292.4C396.755 284.336 398.482 277.232 401.938 271.088C405.49 264.848 410.29 260.096 416.339 256.832C422.387 253.472 429.155 251.792 436.643 251.792C444.131 251.792 450.899 253.472 456.947 256.832C462.995 260.096 467.747 264.8 471.203 270.944C474.755 277.088 476.531 284.24 476.531 292.4C476.531 300.56 474.706 307.76 471.058 314C467.506 320.144 462.659 324.896 456.515 328.256C450.371 331.616 443.555 333.296 436.067 333.296ZM436.067 321.776C440.771 321.776 445.187 320.672 449.315 318.464C453.443 316.256 456.754 312.944 459.25 308.528C461.842 304.112 463.138 298.736 463.138 292.4C463.138 286.064 461.891 280.688 459.395 276.272C456.899 271.856 453.634 268.592 449.602 266.48C445.57 264.272 441.202 263.168 436.498 263.168C431.698 263.168 427.283 264.272 423.25 266.48C419.314 268.592 416.147 271.856 413.747 276.272C411.347 280.688 410.146 286.064 410.146 292.4C410.146 298.832 411.298 304.256 413.602 308.672C416.002 313.088 419.171 316.4 423.107 318.608C427.043 320.72 431.363 321.776 436.067 321.776Z" stroke="white" stroke-width="10" mask="url(#path-1-outside-1)"/>
    <path d="M506.864 267.632C509.456 263.12 513.296 259.376 518.384 256.4C523.568 253.328 529.568 251.792 536.384 251.792C543.392 251.792 549.728 253.472 555.392 256.832C561.152 260.192 565.664 264.944 568.928 271.088C572.192 277.136 573.824 284.192 573.824 292.256C573.824 300.224 572.192 307.328 568.928 313.568C565.664 319.808 561.152 324.656 555.392 328.112C549.728 331.568 543.392 333.296 536.384 333.296C529.664 333.296 523.712 331.808 518.528 328.832C513.44 325.76 509.552 321.968 506.864 317.456V369.44H493.76V253.088H506.864V267.632ZM560.432 292.256C560.432 286.304 559.232 281.12 556.832 276.704C554.432 272.288 551.168 268.928 547.04 266.624C543.008 264.32 538.544 263.168 533.648 263.168C528.848 263.168 524.384 264.368 520.256 266.768C516.224 269.072 512.96 272.48 510.464 276.992C508.064 281.408 506.864 286.544 506.864 292.4C506.864 298.352 508.064 303.584 510.464 308.096C512.96 312.512 516.224 315.92 520.256 318.32C524.384 320.624 528.848 321.776 533.648 321.776C538.544 321.776 543.008 320.624 547.04 318.32C551.168 315.92 554.432 312.512 556.832 308.096C559.232 303.584 560.432 298.304 560.432 292.256Z" stroke="white" stroke-width="10" mask="url(#path-1-outside-1)"/>

    <path d="M663.072 289.52C663.072 292.016 662.928 294.656 662.64 297.44H599.568C600.048 305.216 602.688 311.312 607.488 315.728C612.384 320.048 618.288 322.208 625.2 322.208C630.864 322.208 635.568 320.912 639.312 318.32C643.152 315.632 645.84 312.08 647.376 307.664H661.488C659.376 315.248 655.152 321.44 648.816 326.24C642.48 330.944 634.608 333.296 625.2 333.296C617.712 333.296 610.992 331.616 605.04 328.256C599.184 324.896 594.576 320.144 591.216 314C587.856 307.76 586.176 300.56 586.176 292.4C586.176 284.24 587.808 277.088 591.072 270.944C594.336 264.8 598.896 260.096 604.752 256.832C610.704 253.472 617.52 251.792 625.2 251.792C632.688 251.792 639.312 253.424 645.072 256.688C650.832 259.952 655.248 264.464 658.32 270.224C661.488 275.888 663.072 282.32 663.072 289.52ZM649.536 286.784C649.536 281.792 648.432 277.52 646.224 273.968C644.016 270.32 640.992 267.584 637.152 265.76C633.408 263.84 629.232 262.88 624.624 262.88C618 262.88 612.336 264.992 607.632 269.216C603.024 273.44 600.384 279.296 599.712 286.784H649.536Z" stroke="white" stroke-width="10" mask="url(#path-1-outside-1)"/>
    <path d="M693.473 265.904C695.777 261.392 699.041 257.888 703.265 255.392C707.585 252.896 712.817 251.648 718.961 251.648V265.184H715.505C700.817 265.184 693.473 273.152 693.473 289.088V332H680.369V253.088H693.473V265.904Z" stroke="white" stroke-width="10" mask="url(#path-1-outside-1)" />
</svg>
